solid Exported from Blender-4.0.1
facet normal 0.000000 0.999920 -0.012657
outer loop
vertex 955.302734 96.797623 -2.358421
vertex 955.592529 96.797623 -2.341485
vertex 956.147522 96.797623 -2.311121
endloop
endfacet
facet normal 0.000000 1.000000 -0.000889
outer loop
vertex 956.147522 96.797623 -2.311121
vertex 956.368408 96.797623 -2.311635
vertex 955.147278 96.797623 -2.386543
endloop
endfacet
facet normal 0.000000 1.000000 0.000581
outer loop
vertex 956.147522 96.797623 -2.311121
vertex 955.147278 96.797623 -2.386543
vertex 955.302734 96.797623 -2.358421
endloop
endfacet
facet normal 0.000000 1.000000 0.000000
outer loop
vertex 958.147949 96.797623 -2.247420
vertex 957.595154 96.797623 -2.248175
vertex 958.595337 96.797623 -2.221579
endloop
endfacet
facet normal 0.000000 1.000000 -0.000487
outer loop
vertex 957.147827 96.797623 -2.277983
vertex 956.368408 96.797623 -2.311635
vertex 956.147522 96.797623 -2.311121
endloop
endfacet
facet normal 0.000000 1.000000 0.000000
outer loop
vertex 957.147827 96.797623 -2.277983
vertex 956.147522 96.797623 -2.311121
vertex 957.595154 96.797623 -2.248175
endloop
endfacet
facet normal 0.000000 1.000000 0.000945
outer loop
vertex 957.595154 96.797623 -2.248175
vertex 958.147949 96.797623 -2.247420
vertex 957.147827 96.797623 -2.277983
endloop
endfacet
facet normal 0.000000 1.000000 0.000573
outer loop
vertex 958.147949 96.797623 -2.247420
vertex 958.595337 96.797623 -2.221579
vertex 959.148193 96.797623 -2.219416
endloop
endfacet
facet normal 0.000000 1.000000 -0.000554
outer loop
vertex 958.147949 96.797623 -2.247420
vertex 959.148193 96.797623 -2.219416
vertex 959.595581 96.797623 -2.220661
endloop
endfacet
facet normal 0.000000 0.999987 -0.005053
outer loop
vertex -69.538300 96.797623 7.652883
vertex -69.090790 96.797623 7.647511
vertex -68.643341 96.797623 7.638767
endloop
endfacet
facet normal 0.000000 1.000000 0.000000
outer loop
vertex -67.643158 96.797623 7.624113
vertex -67.090302 96.797623 7.613537
vertex -66.642853 96.797623 7.593872
endloop
endfacet
facet normal 0.000000 1.000000 0.000000
outer loop
vertex -66.642853 96.797623 7.593872
vertex -66.090118 96.797623 7.573389
vertex -65.642670 96.797623 7.555034
endloop
endfacet
facet normal 0.000000 1.000000 0.000000
outer loop
vertex -65.642670 96.797623 7.555034
vertex -68.643341 96.797623 7.638767
vertex -68.090607 96.797623 7.631102
endloop
endfacet
facet normal 0.000000 0.999997 -0.002333
outer loop
vertex -68.090607 96.797623 7.631102
vertex -67.643158 96.797623 7.624113
vertex -66.642853 96.797623 7.593872
endloop
endfacet
facet normal 0.000000 0.999999 0.001607
outer loop
vertex -66.642853 96.797623 7.593872
vertex -65.642670 96.797623 7.555034
vertex -68.090607 96.797623 7.631102
endloop
endfacet
facet normal 0.000000 1.000000 0.000000
outer loop
vertex -68.643341 96.797623 7.638767
vertex -69.090790 96.797623 7.647511
vertex -68.090607 96.797623 7.631102
endloop
endfacet
facet normal 0.000000 1.000000 -0.000991
outer loop
vertex -66.090118 96.797623 7.573389
vertex -62.089142 96.797623 7.514317
vertex -62.641937 96.797623 7.509004
endloop
endfacet
facet normal 0.000000 0.999985 -0.005435
outer loop
vertex -62.641937 96.797623 7.509004
vertex -63.089447 96.797623 7.508540
vertex -63.642181 96.797623 7.511104
endloop
endfacet
facet normal 0.000000 0.999998 -0.001828
outer loop
vertex -63.642181 96.797623 7.511104
vertex -64.089630 96.797623 7.512414
vertex -64.642426 96.797623 7.523360
endloop
endfacet
facet normal 0.000000 1.000000 -0.000893
outer loop
vertex -64.642426 96.797623 7.523360
vertex -65.089874 96.797623 7.528985
vertex -65.642670 96.797623 7.555034
endloop
endfacet
facet normal 0.000000 0.999999 0.001770
outer loop
vertex -65.642670 96.797623 7.555034
vertex -66.090118 96.797623 7.573389
vertex -62.641937 96.797623 7.509004
endloop
endfacet
facet normal 0.000000 1.000000 0.000000
outer loop
vertex -62.641937 96.797623 7.509004
vertex -63.642181 96.797623 7.511104
vertex -64.642426 96.797623 7.523360
endloop
endfacet
facet normal 0.000000 1.000000 0.000000
outer loop
vertex -62.641937 96.797623 7.509004
vertex -64.642426 96.797623 7.523360
vertex -65.642670 96.797623 7.555034
endloop
endfacet
facet normal 0.000000 1.000000 0.000000
outer loop
vertex -56.640594 96.797623 7.487364
vertex -57.088043 96.797623 7.470688
vertex -57.640778 96.797623 7.479239
endloop
endfacet
facet normal 0.000000 0.999999 0.000996
outer loop
vertex -57.640778 96.797623 7.479239
vertex -58.088287 96.797623 7.485601
vertex -55.640289 96.797623 7.519267
endloop
endfacet
facet normal 0.000000 1.000000 0.000000
outer loop
vertex -55.640289 96.797623 7.519267
vertex -56.087799 96.797623 7.500283
vertex -56.640594 96.797623 7.487364
endloop
endfacet
facet normal 0.000000 1.000000 -0.000642
outer loop
vertex -57.640778 96.797623 7.479239
vertex -55.640289 96.797623 7.519267
vertex -56.640594 96.797623 7.487364
endloop
endfacet
facet normal 0.000000 1.000000 0.000000
outer loop
vertex -59.088470 96.797623 7.492620
vertex -58.641022 96.797623 7.492060
vertex -58.088287 96.797623 7.485601
endloop
endfacet
facet normal 0.000000 0.999997 -0.002368
outer loop
vertex -59.088470 96.797623 7.492620
vertex -58.088287 96.797623 7.485601
vertex -57.640778 96.797623 7.479239
endloop
endfacet
facet normal 0.000000 1.000000 0.000000
outer loop
vertex -53.087128 96.797623 7.612348
vertex -53.639862 96.797623 7.581416
vertex -54.087311 96.797623 7.560624
endloop
endfacet
facet normal 0.000000 1.000000 0.000860
outer loop
vertex -54.640106 96.797623 7.555244
vertex -55.087555 96.797623 7.549456
vertex -52.794037 96.797623 7.658410
endloop
endfacet
facet normal 0.000000 1.000000 -0.000329
outer loop
vertex -53.087128 96.797623 7.612348
vertex -54.087311 96.797623 7.560624
vertex -54.640106 96.797623 7.555244
endloop
endfacet
facet normal 0.000000 0.999988 -0.004875
outer loop
vertex -52.794037 96.797623 7.658410
vertex -52.914215 96.797623 7.636853
vertex -53.087128 96.797623 7.612348
endloop
endfacet
facet normal 0.000000 1.000000 -0.000139
outer loop
vertex -54.640106 96.797623 7.555244
vertex -52.794037 96.797623 7.658410
vertex -53.087128 96.797623 7.612348
endloop
endfacet
facet normal 0.000000 1.000000 0.000000
outer loop
vertex -55.640289 96.797623 7.519267
vertex -55.087555 96.797623 7.549456
vertex -54.640106 96.797623 7.555244
endloop
endfacet
facet normal 0.000000 0.999999 0.001351
outer loop
vertex -54.640106 96.797623 7.555244
vertex -54.087311 96.797623 7.560624
vertex -56.087799 96.797623 7.500283
endloop
endfacet
facet normal 0.000000 1.000000 0.000000
outer loop
vertex -55.640289 96.797623 7.519267
vertex -54.640106 96.797623 7.555244
vertex -56.087799 96.797623 7.500283
endloop
endfacet
facet normal 0.000000 0.999994 -0.003445
outer loop
vertex -58.641022 96.797623 7.492060
vertex -59.088470 96.797623 7.492620
vertex -59.641266 96.797623 7.498261
endloop
endfacet
facet normal 0.000000 1.000000 -0.000273
outer loop
vertex -59.088470 96.797623 7.492620
vertex -62.641937 96.797623 7.509004
vertex -62.089142 96.797623 7.514317
endloop
endfacet
facet normal 0.000000 1.000000 0.000000
outer loop
vertex -62.089142 96.797623 7.514317
vertex -61.641693 96.797623 7.514043
vertex -61.088959 96.797623 7.513546
endloop
endfacet
facet normal 0.000000 0.999753 0.022232
outer loop
vertex -61.088959 96.797623 7.513546
vertex -60.641510 96.797623 7.509089
vertex -60.088715 96.797623 7.502815
endloop
endfacet
facet normal 0.000000 0.686957 0.726698
outer loop
vertex -60.088715 96.797623 7.502815
vertex -59.641266 96.797623 7.498261
vertex -59.088470 96.797623 7.492620
endloop
endfacet
facet normal 0.000000 0.999999 -0.001532
outer loop
vertex -62.089142 96.797623 7.514317
vertex -61.088959 96.797623 7.513546
vertex -60.088715 96.797623 7.502815
endloop
endfacet
facet normal 0.000000 1.000000 0.000000
outer loop
vertex -62.089142 96.797623 7.514317
vertex -60.088715 96.797623 7.502815
vertex -59.088470 96.797623 7.492620
endloop
endfacet
facet normal 0.000000 1.000000 0.000000
outer loop
vertex -45.085236 96.797623 7.540919
vertex -45.638000 96.797623 7.554259
vertex -45.939117 96.797623 7.581891
endloop
endfacet
facet normal 0.000000 1.000000 0.000000
outer loop
vertex -45.939117 96.797623 7.581891
vertex -45.638000 96.797623 7.554259
vertex -46.542755 96.797623 7.597507
endloop
endfacet
facet normal 0.000000 1.000000 0.000000
outer loop
vertex -45.939117 96.797623 7.581891
vertex -46.542755 96.797623 7.597507
vertex -46.085449 96.797623 7.595107
endloop
endfacet
facet normal 0.000000 1.000000 -0.000307
outer loop
vertex -45.638000 96.797623 7.554259
vertex -45.085236 96.797623 7.540919
vertex -44.637787 96.797623 7.485150
endloop
endfacet
facet normal 0.000000 1.000000 0.000917
outer loop
vertex -47.510895 96.797623 7.623850
vertex -48.085938 96.797623 7.647493
vertex -48.175446 96.797623 7.658410
endloop
endfacet
facet normal 0.000000 1.000000 0.000000
outer loop
vertex -48.175446 96.797623 7.658410
vertex -48.220245 96.797623 7.663895
vertex -46.085449 96.797623 7.595107
endloop
endfacet
facet normal 0.000000 0.999932 -0.011682
outer loop
vertex -46.085449 96.797623 7.595107
vertex -46.542755 96.797623 7.597507
vertex -47.085693 96.797623 7.601783
endloop
endfacet
facet normal 0.000000 1.000000 0.000000
outer loop
vertex -47.085693 96.797623 7.601783
vertex -47.510895 96.797623 7.623850
vertex -48.175446 96.797623 7.658410
endloop
endfacet
facet normal 0.000000 1.000000 0.000309
outer loop
vertex -48.175446 96.797623 7.658410
vertex -46.085449 96.797623 7.595107
vertex -47.085693 96.797623 7.601783
endloop
endfacet
facet normal 0.000000 1.000000 0.000879
outer loop
vertex -25.633362 96.797623 7.191236
vertex -25.080597 96.797623 7.190991
vertex -24.633118 96.797623 7.175094
endloop
endfacet
facet normal 0.000000 1.000000 0.000547
outer loop
vertex -25.080597 96.797623 7.190991
vertex -25.633362 96.797623 7.191236
vertex -26.080811 96.797623 7.216656
endloop
endfacet
facet normal 0.000000 0.999999 0.001440
outer loop
vertex -23.080139 96.797623 7.204458
vertex -23.632904 96.797623 7.173729
vertex -24.080353 96.797623 7.158440
endloop
endfacet
facet normal 0.000000 0.999984 -0.005715
outer loop
vertex -24.080353 96.797623 7.158440
vertex -24.633118 96.797623 7.175094
vertex -25.080597 96.797623 7.190991
endloop
endfacet
facet normal 0.000000 1.000000 0.000000
outer loop
vertex -24.080353 96.797623 7.158440
vertex -25.080597 96.797623 7.190991
vertex -23.080139 96.797623 7.204458
endloop
endfacet
facet normal 0.000000 1.000000 0.000000
outer loop
vertex -16.631256 96.797623 7.138283
vertex -17.078705 96.797623 7.171472
vertex -14.078003 96.797623 7.051612
endloop
endfacet
facet normal 0.000000 0.999994 -0.003336
outer loop
vertex -14.078003 96.797623 7.051612
vertex -14.630798 96.797623 7.058426
vertex -15.078247 96.797623 7.068078
endloop
endfacet
facet normal 0.000000 0.999999 -0.001359
outer loop
vertex -15.078247 96.797623 7.068078
vertex -15.631042 96.797623 7.074150
vertex -16.078491 96.797623 7.089221
endloop
endfacet
facet normal 0.000000 1.000000 0.000394
outer loop
vertex -16.078491 96.797623 7.089221
vertex -16.631256 96.797623 7.138283
vertex -14.078003 96.797623 7.051612
endloop
endfacet
facet normal 0.000000 1.000000 0.000000
outer loop
vertex -14.078003 96.797623 7.051612
vertex -15.078247 96.797623 7.068078
vertex -16.078491 96.797623 7.089221
endloop
endfacet
facet normal 0.000000 1.000000 0.000288
outer loop
vertex -11.630096 96.797623 7.008805
vertex -11.077332 96.797623 7.035310
vertex -10.629852 96.797623 7.008873
endloop
endfacet
facet normal 0.000000 1.000000 0.000000
outer loop
vertex -10.629852 96.797623 7.008873
vertex -10.077087 96.797623 6.984578
vertex -12.077545 96.797623 6.993761
endloop
endfacet
facet normal 0.000000 1.000000 -0.001016
outer loop
vertex -10.629852 96.797623 7.008873
vertex -12.077545 96.797623 6.993761
vertex -11.630096 96.797623 7.008805
endloop
endfacet
facet normal 0.000000 1.000000 -0.000568
outer loop
vertex -12.630310 96.797623 6.986879
vertex -13.077789 96.797623 6.992143
vertex -13.630554 96.797623 7.028656
endloop
endfacet
facet normal 0.000000 1.000000 -0.000391
outer loop
vertex -13.630554 96.797623 7.028656
vertex -11.630096 96.797623 7.008805
vertex -12.077545 96.797623 6.993761
endloop
endfacet
facet normal 0.000000 1.000000 0.000764
outer loop
vertex -13.630554 96.797623 7.028656
vertex -12.077545 96.797623 6.993761
vertex -12.630310 96.797623 6.986879
endloop
endfacet
facet normal 0.000000 0.999999 0.001579
outer loop
vertex -10.077087 96.797623 6.984578
vertex -9.629639 96.797623 6.976072
vertex -9.076843 96.797623 6.954763
endloop
endfacet
facet normal 0.000000 1.000000 0.000000
outer loop
vertex -9.076843 96.797623 6.954763
vertex -9.629639 96.797623 6.976072
vertex -8.629395 96.797623 6.941909
endloop
endfacet
facet normal 0.000000 0.999999 0.001272
outer loop
vertex -8.629395 96.797623 6.941909
vertex -8.076599 96.797623 6.925077
vertex -7.629150 96.797623 6.900607
endloop
endfacet
facet normal 0.000000 0.999985 -0.005426
outer loop
vertex -8.629395 96.797623 6.941909
vertex -7.629150 96.797623 6.900607
vertex -9.076843 96.797623 6.954763
endloop
endfacet
facet normal 0.000000 0.999999 0.001237
outer loop
vertex -9.629639 96.797623 6.976072
vertex -10.077087 96.797623 6.984578
vertex -10.629852 96.797623 7.008873
endloop
endfacet
facet normal 0.000000 0.999999 -0.001034
outer loop
vertex -5.628693 96.797623 6.860397
vertex -6.076172 96.797623 6.856670
vertex -6.628937 96.797623 6.868551
endloop
endfacet
facet normal 0.000000 0.999999 0.001684
outer loop
vertex -6.628937 96.797623 6.868551
vertex -7.076385 96.797623 6.878361
vertex -7.629150 96.797623 6.900607
endloop
endfacet
facet normal 0.000000 1.000000 0.000000
outer loop
vertex -7.629150 96.797623 6.900607
vertex -8.076599 96.797623 6.925077
vertex -4.628479 96.797623 6.876019
endloop
endfacet
facet normal 0.000000 0.999991 0.004230
outer loop
vertex -4.628479 96.797623 6.876019
vertex -5.075928 96.797623 6.867228
vertex -5.628693 96.797623 6.860397
endloop
endfacet
facet normal 0.000000 1.000000 0.000000
outer loop
vertex -5.628693 96.797623 6.860397
vertex -6.628937 96.797623 6.868551
vertex -7.629150 96.797623 6.900607
endloop
endfacet
facet normal 0.000000 1.000000 0.000000
outer loop
vertex -7.629150 96.797623 6.900607
vertex -4.628479 96.797623 6.876019
vertex -5.628693 96.797623 6.860397
endloop
endfacet
facet normal 0.000000 1.000000 0.000437
outer loop
vertex -1.627777 96.797623 6.963713
vertex -1.075012 96.797623 7.005471
vertex -0.627533 96.797623 7.007710
endloop
endfacet
facet normal 0.000000 1.000000 0.000000
outer loop
vertex -0.627533 96.797623 7.007710
vertex -0.074768 96.797623 6.996883
vertex -2.627991 96.797623 6.908082
endloop
endfacet
facet normal 0.000000 0.999998 -0.001907
outer loop
vertex -2.627991 96.797623 6.908082
vertex -2.075226 96.797623 6.942825
vertex -1.627777 96.797623 6.963713
endloop
endfacet
facet normal 0.000000 1.000000 0.000000
outer loop
vertex -1.627777 96.797623 6.963713
vertex -0.627533 96.797623 7.007710
vertex -2.627991 96.797623 6.908082
endloop
endfacet
facet normal 0.000000 1.000000 0.000639
outer loop
vertex -2.075226 96.797623 6.942825
vertex -2.627991 96.797623 6.908082
vertex -3.628265 96.797623 6.888381
endloop
endfacet
facet normal 0.000000 1.000000 -0.000332
outer loop
vertex -2.627991 96.797623 6.908082
vertex -3.075439 96.797623 6.876314
vertex -3.628265 96.797623 6.888381
endloop
endfacet
facet normal 0.000000 0.999245 -0.038850
outer loop
vertex -5.075928 96.797623 6.867228
vertex -4.628479 96.797623 6.876019
vertex -4.075714 96.797623 6.886442
endloop
endfacet
facet normal 0.000000 0.999999 0.001179
outer loop
vertex -4.075714 96.797623 6.886442
vertex -3.628265 96.797623 6.888381
vertex -3.075439 96.797623 6.876314
endloop
endfacet
facet normal 0.000000 1.000000 0.000000
outer loop
vertex -4.075714 96.797623 6.886442
vertex -3.075439 96.797623 6.876314
vertex -5.075928 96.797623 6.867228
endloop
endfacet
facet normal 0.000000 0.999999 -0.001521
outer loop
vertex -13.630554 96.797623 7.028656
vertex -13.077789 96.797623 6.992143
vertex -14.630798 96.797623 7.058426
endloop
endfacet
facet normal 0.000000 1.000000 0.000791
outer loop
vertex -13.630554 96.797623 7.028656
vertex -14.630798 96.797623 7.058426
vertex -14.078003 96.797623 7.051612
endloop
endfacet
facet normal 0.000000 1.000000 0.000000
outer loop
vertex 2.373169 96.797623 7.042405
vertex 1.925720 96.797623 7.064903
vertex 2.925934 96.797623 7.029848
endloop
endfacet
facet normal 0.000000 1.000000 0.000000
outer loop
vertex 2.925934 96.797623 7.029848
vertex 3.373383 96.797623 6.989698
vertex 2.373169 96.797623 7.042405
endloop
endfacet
facet normal 0.000000 1.000000 0.000537
outer loop
vertex 1.372894 96.797623 7.060923
vertex 1.925720 96.797623 7.064903
vertex 2.373169 96.797623 7.042405
endloop
endfacet
facet normal 0.000000 1.000000 0.000172
outer loop
vertex 2.373169 96.797623 7.042405
vertex 0.372681 96.797623 7.025115
vertex 0.925446 96.797623 7.052049
endloop
endfacet
facet normal 0.000000 1.000000 0.000000
outer loop
vertex 2.373169 96.797623 7.042405
vertex 0.925446 96.797623 7.052049
vertex 1.372894 96.797623 7.060923
endloop
endfacet
facet normal 0.000000 1.000000 0.000000
outer loop
vertex 7.927094 96.797623 6.922615
vertex 7.374298 96.797623 7.007651
vertex 8.374542 96.797623 6.903386
endloop
endfacet
facet normal 0.000000 1.000000 0.000509
outer loop
vertex 10.375000 96.797623 6.774194
vertex 9.927551 96.797623 6.778399
vertex 9.374786 96.797623 6.817080
endloop
endfacet
facet normal 0.000000 1.000000 0.000971
outer loop
vertex 8.927307 96.797623 6.834187
vertex 9.374786 96.797623 6.817080
vertex 9.927551 96.797623 6.778399
endloop
endfacet
facet normal 0.000000 1.000000 -0.000355
outer loop
vertex 9.374786 96.797623 6.817080
vertex 8.927307 96.797623 6.834187
vertex 8.374542 96.797623 6.903386
endloop
endfacet
facet normal 0.000000 1.000000 -0.000375
outer loop
vertex 7.927094 96.797623 6.922615
vertex 8.374542 96.797623 6.903386
vertex 8.927307 96.797623 6.834187
endloop
endfacet
facet normal 0.000000 1.000000 0.000000
outer loop
vertex -0.074768 96.797623 6.996883
vertex -0.627533 96.797623 7.007710
vertex 0.372681 96.797623 7.025115
endloop
endfacet
facet normal 0.000000 1.000000 -0.000441
outer loop
vertex -0.627533 96.797623 7.007710
vertex 0.925446 96.797623 7.052049
vertex 0.372681 96.797623 7.025115
endloop
endfacet
facet normal 0.000000 0.999999 -0.001335
outer loop
vertex 59.939209 96.797623 6.281379
vertex 59.386444 96.797623 6.281476
vertex 58.938965 96.797623 6.291895
endloop
endfacet
facet normal 0.000000 1.000000 0.000000
outer loop
vertex 58.938965 96.797623 6.291895
vertex 58.386169 96.797623 6.352244
vertex 60.939423 96.797623 6.297199
endloop
endfacet
facet normal 0.000000 0.999983 0.005808
outer loop
vertex 60.939423 96.797623 6.297199
vertex 60.386658 96.797623 6.287143
vertex 59.939209 96.797623 6.281379
endloop
endfacet
facet normal 0.000000 1.000000 0.000000
outer loop
vertex 58.938965 96.797623 6.291895
vertex 60.939423 96.797623 6.297199
vertex 59.939209 96.797623 6.281379
endloop
endfacet
facet normal 0.000000 0.999998 0.001920
outer loop
vertex 76.390350 96.797623 6.149503
vertex 76.943146 96.797623 6.160853
vertex 77.390594 96.797623 6.162853
endloop
endfacet
facet normal 0.000000 0.999999 0.001181
outer loop
vertex 77.390594 96.797623 6.162853
vertex 77.943390 96.797623 6.180182
vertex 78.390839 96.797623 6.182528
endloop
endfacet
facet normal 0.000000 1.000000 0.000621
outer loop
vertex 78.390839 96.797623 6.182528
vertex 78.943604 96.797623 6.194202
vertex 79.391083 96.797623 6.181438
endloop
endfacet
facet normal 0.000000 0.999999 -0.001536
outer loop
vertex 79.391083 96.797623 6.181438
vertex 79.943848 96.797623 6.171652
vertex 80.391296 96.797623 6.154747
endloop
endfacet
facet normal 0.000000 1.000000 0.000691
outer loop
vertex 80.391296 96.797623 6.154747
vertex 80.944061 96.797623 6.136667
vertex 75.942902 96.797623 6.140349
endloop
endfacet
facet normal 0.000000 0.999988 -0.004795
outer loop
vertex 75.942902 96.797623 6.140349
vertex 76.390350 96.797623 6.149503
vertex 77.390594 96.797623 6.162853
endloop
endfacet
facet normal 0.000000 1.000000 0.000000
outer loop
vertex 77.390594 96.797623 6.162853
vertex 78.390839 96.797623 6.182528
vertex 79.391083 96.797623 6.181438
endloop
endfacet
facet normal 0.000000 1.000000 0.000000
outer loop
vertex 79.391083 96.797623 6.181438
vertex 80.391296 96.797623 6.154747
vertex 75.942902 96.797623 6.140349
endloop
endfacet
facet normal 0.000000 0.999994 -0.003369
outer loop
vertex 77.390594 96.797623 6.162853
vertex 79.391083 96.797623 6.181438
vertex 75.942902 96.797623 6.140349
endloop
endfacet
facet normal 0.000000 0.999999 0.001187
outer loop
vertex 75.390137 96.797623 6.131495
vertex 74.942688 96.797623 6.120238
vertex 74.389923 96.797623 6.120698
endloop
endfacet
facet normal 0.000000 0.999987 -0.005086
outer loop
vertex 73.942444 96.797623 6.119634
vertex 73.389648 96.797623 6.115919
vertex 72.942200 96.797623 6.115625
endloop
endfacet
facet normal 0.000000 1.000000 0.000000
outer loop
vertex 75.390137 96.797623 6.131495
vertex 74.389923 96.797623 6.120698
vertex 73.942444 96.797623 6.119634
endloop
endfacet
facet normal 0.000000 0.999976 0.006948
outer loop
vertex 76.390350 96.797623 6.149503
vertex 75.942902 96.797623 6.140349
vertex 75.390137 96.797623 6.131495
endloop
endfacet
facet normal 0.000000 1.000000 0.000886
outer loop
vertex 72.389435 96.797623 6.140409
vertex 71.941956 96.797623 6.156614
vertex 76.390350 96.797623 6.149503
endloop
endfacet
facet normal 0.000000 1.000000 0.000848
outer loop
vertex 73.942444 96.797623 6.119634
vertex 72.942200 96.797623 6.115625
vertex 72.389435 96.797623 6.140409
endloop
endfacet
facet normal 0.000000 1.000000 0.000000
outer loop
vertex 76.390350 96.797623 6.149503
vertex 75.390137 96.797623 6.131495
vertex 73.942444 96.797623 6.119634
endloop
endfacet
facet normal 0.000000 1.000000 0.000000
outer loop
vertex 73.942444 96.797623 6.119634
vertex 72.389435 96.797623 6.140409
vertex 76.390350 96.797623 6.149503
endloop
endfacet
facet normal 0.000000 0.999999 0.001157
outer loop
vertex 71.389191 96.797623 6.161893
vertex 71.941956 96.797623 6.156614
vertex 72.389435 96.797623 6.140409
endloop
endfacet
facet normal 0.000000 1.000000 0.000108
outer loop
vertex 72.389435 96.797623 6.140409
vertex 70.388977 96.797623 6.128254
vertex 70.941742 96.797623 6.166839
endloop
endfacet
facet normal 0.000000 0.999995 -0.003271
outer loop
vertex 72.389435 96.797623 6.140409
vertex 70.941742 96.797623 6.166839
vertex 71.389191 96.797623 6.161893
endloop
endfacet
facet normal 0.000000 1.000000 0.000759
outer loop
vertex 82.391754 96.797623 6.119410
vertex 81.944305 96.797623 6.112922
vertex 81.391541 96.797623 6.127367
endloop
endfacet
facet normal 0.000000 0.999997 -0.002587
outer loop
vertex 81.391541 96.797623 6.127367
vertex 80.944061 96.797623 6.136667
vertex 80.391296 96.797623 6.154747
endloop
endfacet
facet normal 0.000000 1.000000 0.000000
outer loop
vertex 81.391541 96.797623 6.127367
vertex 80.391296 96.797623 6.154747
vertex 82.391754 96.797623 6.119410
endloop
endfacet
facet normal 0.000000 1.000000 -0.000914
outer loop
vertex 83.391998 96.797623 6.125445
vertex 82.944550 96.797623 6.114401
vertex 82.391754 96.797623 6.119410
endloop
endfacet
facet normal 0.000000 1.000000 0.000000
outer loop
vertex 83.391998 96.797623 6.125445
vertex 82.391754 96.797623 6.119410
vertex 83.944794 96.797623 6.136251
endloop
endfacet
facet normal 0.000000 0.999999 0.001309
outer loop
vertex 81.944305 96.797623 6.112922
vertex 82.391754 96.797623 6.119410
vertex 82.944550 96.797623 6.114401
endloop
endfacet
facet normal 0.000000 1.000000 0.000000
outer loop
vertex 86.945465 96.797623 6.136534
vertex 86.392700 96.797623 6.144790
vertex 87.392914 96.797623 6.136131
endloop
endfacet
facet normal 0.000000 1.000000 0.000000
outer loop
vertex 87.392914 96.797623 6.136131
vertex 87.945709 96.797623 6.134458
vertex 86.945465 96.797623 6.136534
endloop
endfacet
facet normal 0.000000 0.999999 0.001173
outer loop
vertex 85.392456 96.797623 6.154819
vertex 85.945221 96.797623 6.155780
vertex 86.392700 96.797623 6.144790
endloop
endfacet
facet normal 0.000000 1.000000 0.000000
outer loop
vertex 86.392700 96.797623 6.144790
vertex 86.945465 96.797623 6.136534
vertex 83.391998 96.797623 6.125445
endloop
endfacet
facet normal 0.000000 0.999998 -0.002016
outer loop
vertex 83.944794 96.797623 6.136251
vertex 84.392242 96.797623 6.148044
vertex 84.945007 96.797623 6.154153
endloop
endfacet
facet normal 0.000000 0.999999 0.001053
outer loop
vertex 86.392700 96.797623 6.144790
vertex 83.391998 96.797623 6.125445
vertex 83.944794 96.797623 6.136251
endloop
endfacet
facet normal 0.000000 0.999996 -0.002961
outer loop
vertex 84.945007 96.797623 6.154153
vertex 85.392456 96.797623 6.154819
vertex 86.392700 96.797623 6.144790
endloop
endfacet
facet normal 0.000000 1.000000 0.000000
outer loop
vertex 86.392700 96.797623 6.144790
vertex 83.944794 96.797623 6.136251
vertex 84.945007 96.797623 6.154153
endloop
endfacet
facet normal 0.000000 0.997872 -0.065200
outer loop
vertex 89.946167 96.797623 6.160810
vertex 90.393585 96.797623 6.157247
vertex 90.946381 96.797623 6.152584
endloop
endfacet
facet normal 0.000000 0.999999 -0.000998
outer loop
vertex 90.946381 96.797623 6.152584
vertex 88.393127 96.797623 6.142212
vertex 88.945892 96.797623 6.153436
endloop
endfacet
facet normal 0.000000 0.999911 0.013338
outer loop
vertex 88.945892 96.797623 6.153436
vertex 89.393372 96.797623 6.157307
vertex 89.946167 96.797623 6.160810
endloop
endfacet
facet normal 0.000000 1.000000 0.000978
outer loop
vertex 90.946381 96.797623 6.152584
vertex 88.945892 96.797623 6.153436
vertex 89.946167 96.797623 6.160810
endloop
endfacet
facet normal 0.000000 1.000000 0.000000
outer loop
vertex 87.945709 96.797623 6.134458
vertex 87.392914 96.797623 6.136131
vertex 88.945892 96.797623 6.153436
endloop
endfacet
facet normal 0.000000 0.999946 0.010372
outer loop
vertex 87.945709 96.797623 6.134458
vertex 88.945892 96.797623 6.153436
vertex 88.393127 96.797623 6.142212
endloop
endfacet
facet normal 0.000000 1.000000 0.000426
outer loop
vertex 93.394257 96.797623 6.177570
vertex 93.947052 96.797623 6.195457
vertex 94.394531 96.797623 6.177539
endloop
endfacet
facet normal 0.000000 0.999938 -0.011130
outer loop
vertex 94.394531 96.797623 6.177539
vertex 94.947327 96.797623 6.157578
vertex 95.394745 96.797623 6.140182
endloop
endfacet
facet normal 0.000000 1.000000 0.000000
outer loop
vertex 95.394745 96.797623 6.140182
vertex 95.947540 96.797623 6.111548
vertex 92.394043 96.797623 6.153672
endloop
endfacet
facet normal 0.000000 0.999999 -0.001699
outer loop
vertex 92.394043 96.797623 6.153672
vertex 92.946838 96.797623 6.171369
vertex 93.394257 96.797623 6.177570
endloop
endfacet
facet normal 0.000000 1.000000 0.000409
outer loop
vertex 93.394257 96.797623 6.177570
vertex 94.394531 96.797623 6.177539
vertex 95.394745 96.797623 6.140182
endloop
endfacet
facet normal 0.000000 1.000000 0.000000
outer loop
vertex 93.394257 96.797623 6.177570
vertex 95.394745 96.797623 6.140182
vertex 92.394043 96.797623 6.153672
endloop
endfacet
facet normal 0.000000 1.000000 0.000000
outer loop
vertex 95.947540 96.797623 6.111548
vertex 95.394745 96.797623 6.140182
vertex 96.394958 96.797623 6.105917
endloop
endfacet
facet normal 0.000000 0.999998 -0.001940
outer loop
vertex 98.395447 96.797623 6.089922
vertex 97.947998 96.797623 6.087312
vertex 97.395203 96.797623 6.092877
endloop
endfacet
facet normal 0.000000 0.999993 -0.003617
outer loop
vertex 96.947784 96.797623 6.093567
vertex 97.395203 96.797623 6.092877
vertex 97.947998 96.797623 6.087312
endloop
endfacet
facet normal 0.000000 0.999999 -0.001483
outer loop
vertex 97.395203 96.797623 6.092877
vertex 96.947784 96.797623 6.093567
vertex 96.394958 96.797623 6.105917
endloop
endfacet
facet normal 0.000000 0.999995 0.003162
outer loop
vertex 95.947540 96.797623 6.111548
vertex 96.394958 96.797623 6.105917
vertex 96.947784 96.797623 6.093567
endloop
endfacet
facet normal 0.000000 0.999996 -0.002664
outer loop
vertex 98.948273 96.797623 6.083518
vertex 99.395691 96.797623 6.089839
vertex 99.948486 96.797623 6.091247
endloop
endfacet
facet normal 0.000000 1.000000 0.000000
outer loop
vertex 99.948486 96.797623 6.091247
vertex 99.395691 96.797623 6.089839
vertex 100.395905 96.797623 6.103827
endloop
endfacet
facet normal 0.000000 0.999999 0.001212
outer loop
vertex 102.396362 96.797623 6.115932
vertex 102.949158 96.797623 6.121337
vertex 103.396606 96.797623 6.114321
endloop
endfacet
facet normal 0.000000 0.999986 0.005207
outer loop
vertex 105.397064 96.797623 6.089271
vertex 104.949646 96.797623 6.093291
vertex 104.396851 96.797623 6.101534
endloop
endfacet
facet normal 0.000000 1.000000 0.000000
outer loop
vertex 105.397064 96.797623 6.089271
vertex 104.396851 96.797623 6.101534
vertex 103.949432 96.797623 6.110643
endloop
endfacet
facet normal 0.000000 0.999977 -0.006832
outer loop
vertex 103.396606 96.797623 6.114321
vertex 102.949158 96.797623 6.121337
vertex 103.949432 96.797623 6.110643
endloop
endfacet
facet normal 0.000000 1.000000 0.000000
outer loop
vertex 103.949432 96.797623 6.110643
vertex 104.396851 96.797623 6.101534
vertex 103.396606 96.797623 6.114321
endloop
endfacet
facet normal 0.000000 0.999999 0.001134
outer loop
vertex 102.949158 96.797623 6.121337
vertex 102.396362 96.797623 6.115932
vertex 101.948944 96.797623 6.123724
endloop
endfacet
facet normal 0.000000 0.999273 0.038136
outer loop
vertex 100.948700 96.797623 6.110590
vertex 101.396149 96.797623 6.116665
vertex 101.948944 96.797623 6.123724
endloop
endfacet
facet normal 0.000000 1.000000 0.000000
outer loop
vertex 101.948944 96.797623 6.123724
vertex 102.396362 96.797623 6.115932
vertex 99.948486 96.797623 6.091247
endloop
endfacet
facet normal 0.000000 0.999998 -0.001942
outer loop
vertex 99.948486 96.797623 6.091247
vertex 100.395905 96.797623 6.103827
vertex 100.948700 96.797623 6.110590
endloop
endfacet
facet normal 0.000000 1.000000 0.000000
outer loop
vertex 101.948944 96.797623 6.123724
vertex 99.948486 96.797623 6.091247
vertex 100.948700 96.797623 6.110590
endloop
endfacet
facet normal 0.000000 0.999999 -0.001200
outer loop
vertex 99.395691 96.797623 6.089839
vertex 98.948273 96.797623 6.083518
vertex 98.395447 96.797623 6.089922
endloop
endfacet
facet normal 0.000000 0.999998 0.001771
outer loop
vertex 97.947998 96.797623 6.087312
vertex 98.395447 96.797623 6.089922
vertex 98.948273 96.797623 6.083518
endloop
endfacet
facet normal 0.000000 0.999998 0.001959
outer loop
vertex 92.946838 96.797623 6.171369
vertex 92.394043 96.797623 6.153672
vertex 91.946625 96.797623 6.146393
endloop
endfacet
facet normal 0.000000 0.999968 -0.008023
outer loop
vertex 91.946625 96.797623 6.146393
vertex 91.393799 96.797623 6.148864
vertex 90.946381 96.797623 6.152584
endloop
endfacet
facet normal 0.000000 1.000000 0.000000
outer loop
vertex 90.946381 96.797623 6.152584
vertex 90.393585 96.797623 6.157247
vertex 92.946838 96.797623 6.171369
endloop
endfacet
facet normal 0.000000 1.000000 0.000000
outer loop
vertex 91.946625 96.797623 6.146393
vertex 90.946381 96.797623 6.152584
vertex 92.946838 96.797623 6.171369
endloop
endfacet
facet normal 0.000000 0.999014 0.044393
outer loop
vertex 107.397522 96.797623 6.072682
vertex 107.950317 96.797623 6.070389
vertex 108.397797 96.797623 6.068222
endloop
endfacet
facet normal 0.000000 0.999986 0.005292
outer loop
vertex 107.950317 96.797623 6.070389
vertex 107.397522 96.797623 6.072682
vertex 106.950104 96.797623 6.077147
endloop
endfacet
facet normal 0.000000 0.999987 -0.005185
outer loop
vertex 106.397308 96.797623 6.079373
vertex 106.950104 96.797623 6.077147
vertex 107.397522 96.797623 6.072682
endloop
endfacet
facet normal 0.000000 1.000000 0.000000
outer loop
vertex 106.397308 96.797623 6.079373
vertex 107.397522 96.797623 6.072682
vertex 105.949860 96.797623 6.081694
endloop
endfacet
facet normal 0.000000 1.000000 0.000000
outer loop
vertex 111.951294 96.797623 6.089168
vertex 112.398712 96.797623 6.089103
vertex 111.398499 96.797623 6.079512
endloop
endfacet
facet normal 0.000000 0.999985 0.005525
outer loop
vertex 109.398010 96.797623 6.065883
vertex 108.950592 96.797623 6.065548
vertex 108.397797 96.797623 6.068222
endloop
endfacet
facet normal 0.000000 1.000000 0.000000
outer loop
vertex 108.397797 96.797623 6.068222
vertex 107.950317 96.797623 6.070389
vertex 111.951294 96.797623 6.089168
endloop
endfacet
facet normal 0.000000 0.999929 -0.011951
outer loop
vertex 111.951294 96.797623 6.089168
vertex 111.398499 96.797623 6.079512
vertex 110.951050 96.797623 6.072850
endloop
endfacet
facet normal 0.000000 0.999999 -0.001101
outer loop
vertex 111.951294 96.797623 6.089168
vertex 110.951050 96.797623 6.072850
vertex 110.398224 96.797623 6.070758
endloop
endfacet
facet normal 0.000000 1.000000 0.000000
outer loop
vertex 109.398010 96.797623 6.065883
vertex 108.397797 96.797623 6.068222
vertex 111.951294 96.797623 6.089168
endloop
endfacet
facet normal 0.000000 1.000000 0.000000
outer loop
vertex 111.951294 96.797623 6.089168
vertex 110.398224 96.797623 6.070758
vertex 109.950806 96.797623 6.068758
endloop
endfacet
facet normal 0.000000 0.999999 0.001380
outer loop
vertex 111.951294 96.797623 6.089168
vertex 109.950806 96.797623 6.068758
vertex 109.398010 96.797623 6.065883
endloop
endfacet
facet normal 0.000000 1.000000 0.000000
outer loop
vertex 114.951965 96.797623 6.100352
vertex 114.399170 96.797623 6.101200
vertex 115.399384 96.797623 6.101718
endloop
endfacet
facet normal 0.000000 1.000000 0.000000
outer loop
vertex 113.398956 96.797623 6.097672
vertex 112.951477 96.797623 6.097801
vertex 114.399170 96.797623 6.101200
endloop
endfacet
facet normal 0.000000 0.999983 0.005752
outer loop
vertex 113.398956 96.797623 6.097672
vertex 114.399170 96.797623 6.101200
vertex 113.951752 96.797623 6.098296
endloop
endfacet
facet normal 0.000000 1.000000 0.000000
outer loop
vertex 114.399170 96.797623 6.101200
vertex 114.951965 96.797623 6.100352
vertex 113.951752 96.797623 6.098296
endloop
endfacet
facet normal 0.000000 1.000000 0.000000
outer loop
vertex 116.399658 96.797623 6.097339
vertex 116.952454 96.797623 6.094762
vertex 115.952209 96.797623 6.096970
endloop
endfacet
facet normal 0.000000 0.999992 0.003885
outer loop
vertex 112.398712 96.797623 6.089103
vertex 111.951294 96.797623 6.089168
vertex 112.951477 96.797623 6.097801
endloop
endfacet
facet normal 0.000000 1.000000 0.000000
outer loop
vertex 112.951477 96.797623 6.097801
vertex 113.398956 96.797623 6.097672
vertex 112.398712 96.797623 6.089103
endloop
endfacet
facet normal 0.000000 0.999987 0.005133
outer loop
vertex 126.401978 96.797623 6.116344
vertex 125.954529 96.797623 6.114252
vertex 125.401764 96.797623 6.114990
endloop
endfacet
facet normal 0.000000 1.000000 0.000000
outer loop
vertex 126.401978 96.797623 6.116344
vertex 125.401764 96.797623 6.114990
vertex 124.954346 96.797623 6.120815
endloop
endfacet
facet normal 0.000000 1.000000 0.000000
outer loop
vertex 124.954346 96.797623 6.120815
vertex 125.401764 96.797623 6.114990
vertex 124.401520 96.797623 6.120559
endloop
endfacet
facet normal 0.000000 0.999902 -0.013997
outer loop
vertex 130.402893 96.797623 6.150248
vertex 130.955688 96.797623 6.155907
vertex 131.403107 96.797623 6.159501
endloop
endfacet
facet normal 0.000000 1.000000 0.000000
outer loop
vertex 131.403107 96.797623 6.159501
vertex 130.955688 96.797623 6.155907
vertex 131.955902 96.797623 6.166765
endloop
endfacet
facet normal 0.000000 0.999952 -0.009744
outer loop
vertex 130.955688 96.797623 6.155907
vertex 130.402893 96.797623 6.150248
vertex 129.955444 96.797623 6.147084
endloop
endfacet
facet normal 0.000000 0.999798 0.020125
outer loop
vertex 129.402649 96.797623 6.142328
vertex 129.955444 96.797623 6.147084
vertex 130.402893 96.797623 6.150248
endloop
endfacet
facet normal 0.000000 0.999792 0.020419
outer loop
vertex 125.954529 96.797623 6.114252
vertex 126.401978 96.797623 6.116344
vertex 126.954773 96.797623 6.118093
endloop
endfacet
facet normal 0.000000 0.999993 -0.003620
outer loop
vertex 106.397308 96.797623 6.079373
vertex 105.949860 96.797623 6.081694
vertex 105.397064 96.797623 6.089271
endloop
endfacet
facet normal 0.000000 0.999979 -0.006536
outer loop
vertex 104.949646 96.797623 6.093291
vertex 105.397064 96.797623 6.089271
vertex 105.949860 96.797623 6.081694
endloop
endfacet
facet normal 0.000000 0.999871 -0.016050
outer loop
vertex 137.404541 96.797623 6.209578
vertex 136.957062 96.797623 6.205152
vertex 136.404266 96.797623 6.200746
endloop
endfacet
facet normal 0.000000 0.999729 -0.023283
outer loop
vertex 160.962677 96.797623 6.167133
vertex 161.410095 96.797623 6.174679
vertex 161.962860 96.797623 6.183269
endloop
endfacet
facet normal 0.000000 0.891579 0.452865
outer loop
vertex 161.962860 96.797623 6.183269
vertex 162.410309 96.797623 6.188005
vertex 162.963104 96.797623 6.193824
endloop
endfacet
facet normal 0.000000 1.000000 0.000000
outer loop
vertex 162.963104 96.797623 6.193824
vertex 163.410553 96.797623 6.196746
vertex 160.962677 96.797623 6.167133
endloop
endfacet
facet normal 0.000000 1.000000 0.000000
outer loop
vertex 161.962860 96.797623 6.183269
vertex 162.963104 96.797623 6.193824
vertex 160.962677 96.797623 6.167133
endloop
endfacet
endsolid Exported from Blender-4.0.1